<?xml version="1.0" encoding="utf-8"?>
<!-- Generator: Adobe Illustrator 27.8.1, SVG Export Plug-In . SVG Version: 6.00 Build 0)  -->
<svg version="1.1" id="Layer_1" xmlns="http://www.w3.org/2000/svg" xmlns:xlink="http://www.w3.org/1999/xlink" x="0px" y="0px"
	 viewBox="0 0 479.33 479.33" style="enable-background:new 0 0 479.33 479.33;" xml:space="preserve">
<style type="text/css">
	.st0{opacity:0.5;clip-path:url(#SVGID_00000073718200852218558680000007920262166854666896_);}
	.st1{clip-path:url(#SVGID_00000137103571967945402490000013758965093771484574_);}
	.st2{clip-path:url(#SVGID_00000165217040565531861530000013365097449608885919_);}
</style>
<g>
	<defs>
		<rect id="SVGID_1_" width="479.33" height="479.33"/>
	</defs>
	<clipPath id="SVGID_00000171706150432097960420000014281260458698791322_">
		<use xlink:href="#SVGID_1_"  style="overflow:visible;"/>
	</clipPath>
	<g style="opacity:0.5;clip-path:url(#SVGID_00000171706150432097960420000014281260458698791322_);">
		<g>
			<defs>
				<rect id="SVGID_00000116213089286437467520000008745482151105595550_" x="409.67" y="127.56" width="69.67" height="169.31"/>
			</defs>
			<clipPath id="SVGID_00000122680339847370869880000004835212595652755643_">
				<use xlink:href="#SVGID_00000116213089286437467520000008745482151105595550_"  style="overflow:visible;"/>
			</clipPath>
			<path style="clip-path:url(#SVGID_00000122680339847370869880000004835212595652755643_);" d="M479.33,127.56v169.31
				l-69.67-44.93v-31.56C426.47,197.99,462.82,149.55,479.33,127.56"/>
		</g>
	</g>
	<g style="opacity:0.5;clip-path:url(#SVGID_00000171706150432097960420000014281260458698791322_);">
		<g>
			<defs>
				<rect id="SVGID_00000091723091724625701760000010437332407646006913_" x="0" y="181.04" width="69.67" height="169.32"/>
			</defs>
			<clipPath id="SVGID_00000113331130060236829560000017204438998652666547_">
				<use xlink:href="#SVGID_00000091723091724625701760000010437332407646006913_"  style="overflow:visible;"/>
			</clipPath>
			<path style="clip-path:url(#SVGID_00000113331130060236829560000017204438998652666547_);" d="M0,350.36V181.04l69.67,44.93
				v31.56C52.87,279.93,16.51,328.36,0,350.36"/>
		</g>
	</g>
</g>
<polygon points="192.33,0 192.33,61.33 0,61.33 0,128.27 345.45,351.05 50.25,351.05 0,417.99 192.33,417.99 192.33,479.33 
	287,479.33 287,417.99 479.33,417.99 479.33,351.05 133.88,128.27 429.08,128.27 479.33,61.33 287,61.33 287,0 "/>
</svg>
